<?xml version="1.0" encoding="UTF-8"?>
<svg version="1.1" xmlns="http://www.w3.org/2000/svg" width="1080" height="1080">
<path d="M0 0 C356.4 0 712.8 0 1080 0 C1080 356.4 1080 712.8 1080 1080 C723.6 1080 367.2 1080 0 1080 C0 723.6 0 367.2 0 0 Z " fill="#222226" transform="translate(0,0)"/>
<path d="M0 0 C5.25628778 4.1738562 9.86524255 8.76064385 14.1953125 13.87890625 C16.20389542 16.23964331 18.28499067 18.52361435 20.375 20.8125 C23.42858867 24.18940982 26.34429205 27.63217132 29.1875 31.1875 C34.09404731 37.25816662 39.43200617 42.89068915 44.78125 48.5703125 C48.73316017 52.76808922 52.52345773 57.08290505 56.25439453 61.47753906 C62.79404337 69.17792447 69.45091217 76.72408916 76.33203125 84.12109375 C80.5674635 88.6913918 84.63526191 93.39164663 88.66796875 98.140625 C94.7416288 105.28110357 100.94727772 112.25766781 107.33203125 119.12109375 C111.5674635 123.6913918 115.63526191 128.39164663 119.66796875 133.140625 C125.7416288 140.28110357 131.94727772 147.25766781 138.33203125 154.12109375 C141.63362645 157.68372283 144.83292866 161.31811665 148 165 C148.92425055 166.05879336 149.84875318 167.1173667 150.7734375 168.17578125 C166.94237198 186.75120677 180.17299928 205.63542775 179.3125 231.2890625 C177.90902457 247.95533321 172.37961343 262.86764238 162 276 C160.8553125 277.546875 160.8553125 277.546875 159.6875 279.125 C145.35797377 294.45426062 127.17494477 299.85747151 107.63778687 305.38792419 C102.63795154 306.80514785 97.67281976 308.31651511 92.71289062 309.86669922 C89.02405834 311.01485779 85.32429891 312.12368103 81.62011719 313.22119141 C79.89453489 313.73410675 78.1711365 314.25443665 76.45019531 314.78271484 C54.29940459 321.50567413 33.90602716 321.22299749 13.125 310.6875 C7.25595585 307.33894882 2.05051298 303.47841948 -3 299 C-3.63550781 298.44699219 -4.27101563 297.89398437 -4.92578125 297.32421875 C-18.81951874 284.41628969 -23.44485272 265.83543107 -28.375 248.25 C-29.24310608 245.18946353 -30.1142873 242.12981461 -30.98587036 239.07026672 C-31.55422731 237.07499234 -32.1216828 235.07946093 -32.6882019 233.08366394 C-34.66457632 226.1316011 -36.72354782 219.21257827 -38.875 212.3125 C-41.55874653 203.65916913 -43.96312505 194.94455768 -46.25341797 186.17895508 C-48.33416313 178.27068667 -50.61330353 170.42839496 -52.91488647 162.58204651 C-55.76145123 152.85900985 -58.54501545 143.1185524 -61.3203125 133.375 C-61.79548983 131.7077523 -62.27068935 130.04051093 -62.74591064 128.37327576 C-64.70143669 121.51149165 -66.65601005 114.64943759 -68.60791016 107.78662109 C-69.82024402 103.52442109 -71.03460366 99.26280241 -72.25017929 95.00152588 C-72.70454092 93.40729941 -73.15817744 91.81286606 -73.61099625 90.21820068 C-76.07997769 81.52414331 -78.61756764 72.86148735 -81.36418343 64.25050354 C-86.09339745 49.37095354 -86.98037339 34.63739603 -80.19140625 20.2578125 C-73.15527031 6.92375816 -62.66644833 -2.3772896 -48.5625 -7.9375 C-31.66169355 -12.9780914 -14.29006284 -10.35373502 0 0 Z " fill="#EEAD28" transform="translate(512,279)"/>
<path d="M0 0 C3.42552233 10.94845401 6.75540949 21.9007198 9.64038086 33.00561523 C17.59170633 63.5937162 30.63703076 94.08241373 59 111 C83.89475116 125.5723768 111.86808199 132.67307835 140.43457031 125.67773438 C147.55521224 123.79660552 154.62883437 121.72601491 161.68164062 119.60546875 C162.85662109 119.25613281 164.03160156 118.90679688 165.2421875 118.546875 C166.3029248 118.22557617 167.36366211 117.90427734 168.45654297 117.57324219 C171 117 171 117 173 118 C173.72489929 119.80552673 173.72489929 119.80552673 174.40112305 122.19897461 C174.78781158 123.54588127 174.78781158 123.54588127 175.18231201 124.91999817 C175.45601624 125.90417221 175.72972046 126.88834625 176.01171875 127.90234375 C176.30081116 128.9186235 176.58990356 129.93490326 176.88775635 130.98197937 C177.82878819 134.29833942 178.75828365 137.61781189 179.6875 140.9375 C180.32896785 143.20702136 180.97097637 145.47638997 181.61352539 147.74560547 C185.07682691 160.00467495 188.46827028 172.28016327 191.72265625 184.59643555 C194.3127684 194.33675154 197.28407218 203.95356617 200.25830078 213.58203125 C201.92940736 219.02990471 203.47488311 224.50957919 205 230 C205.450253 231.52612071 205.90079368 233.05215657 206.3515625 234.578125 C209.83281621 246.653309 212.47857917 258.75388508 208 271 C207.67 271.93457031 207.34 272.86914062 207 273.83203125 C201.69671718 287.70081363 192.39397262 297.62296856 179 304 C167.26168406 309.13443275 153.89464787 311.40235357 141.23046875 307.875 C128.73583498 302.97342738 119.34487017 295.24781453 110.76953125 285.0859375 C108.77497231 282.73473557 106.70415762 280.46415964 104.625 278.1875 C101.57141133 274.81059018 98.65570795 271.36782868 95.8125 267.8125 C90.90595269 261.74183338 85.56799383 256.10931085 80.21875 250.4296875 C76.26683983 246.23191078 72.47654227 241.91709495 68.74560547 237.52246094 C62.20595663 229.82207553 55.54908783 222.27591084 48.66796875 214.87890625 C44.4325365 210.3086082 40.36473809 205.60835337 36.33203125 200.859375 C30.2583712 193.71889643 24.05272228 186.74233219 17.66796875 179.87890625 C13.4325365 175.3086082 9.36473809 170.60835337 5.33203125 165.859375 C-0.7416288 158.71889643 -6.94727772 151.74233219 -13.33203125 144.87890625 C-16.63364766 141.31625428 -19.83239641 137.68144483 -23 134 C-23.93594356 132.92946507 -24.87216774 131.85917544 -25.80859375 130.7890625 C-43.19039822 110.84601823 -55.53722857 91.3153692 -54 64 C-52.37760819 48.23035158 -46.53911732 33.94433297 -36 22 C-35.40574219 21.20980469 -34.81148438 20.41960938 -34.19921875 19.60546875 C-26.31240664 10.26176772 -12.59105346 -0.3136844 0 0 Z " fill="#EEAD28" transform="translate(443,502)"/>
</svg>
